# xmcd
#
# Track frame offsets: 
#        150
#        13933
#        27875
#        40996
#        56303
#        70996
#        83183
#        96267
#        110099
#        124570
#        137562
#        150941
#        165264
#        179194
#        191356
#        205288
#        217945
#        231209
#        243889
#        256719
#
# Disc length: 3611 seconds
#
# Revision: 0
# Processed by: cddbd v1.5.2PL0 Copyright (c) Steve Scherf et al.
# Submitted via: ExactAudioCopyFreeDBPlugin 1.0
#
DISCID=070e1914
DTITLE=Holiday, Billie - The One and Only Lady Day - Disc 1
DYEAR=2006
DGENRE=Blues
TTITLE0=What A Little Moonligh Can Do
TTITLE1=Miss Brown To You
TTITLE2=A Sunbonnet Blue
TTITLE3=It's Like Reaching For The Moon
TTITLE4=I Cried For You
TTITLE5=Billie's Blues
TTITLE6=A Fine Romance
TTITLE7=The Way You Look Tonight
TTITLE8=This Year's Kisses
TTITLE9=Why Was I Born?
TTITLE10=I Must Have That Man
TTITLE11=Mean To Me
TTITLE12=Easy Living
TTITLE13=He's Funny That Way
TTITLE14=My Man
TTITLE15=I Can't Believe That You're In Love With Me
TTITLE16=You Go To My Head
TTITLE17=The Very Thought Of You
TTITLE18=I Can't Get Started
TTITLE19=More Than You Know
EXTD=
EXTT0=
EXTT1=
EXTT2=
EXTT3=
EXTT4=
EXTT5=
EXTT6=
EXTT7=
EXTT8=
EXTT9=
EXTT10=
EXTT11=
EXTT12=
EXTT13=
EXTT14=
EXTT15=
EXTT16=
EXTT17=
EXTT18=
EXTT19=
PLAYORDER=
